{
	"asset":{
		"generator":"Khronos glTF Blender I/O v3.6.27",
		"version":"2.0"
	},
	"extensionsUsed":[
		"KHR_materials_specular",
		"KHR_materials_ior"
	],
	"scene":0,
	"scenes":[
		{
			"name":"Scene",
			"nodes":[
				0,
				1,
				2,
				3,
				4,
				5,
				6
			]
		}
	],
	"nodes":[
		{
			"mesh":0,
			"name":"Cupboard_600_1650"
		},
		{
			"mesh":1,
			"name":"Door_600_06"
		},
		{
			"mesh":2,
			"name":"Door_600_07"
		},
		{
			"mesh":3,
			"name":"Pen_005"
		},
		{
			"mesh":4,
			"name":"Pen_006"
		},
		{
			"mesh":5,
			"name":"Table_top_02"
		},
		{
			"mesh":6,
			"name":"Ventilation.001"
		}
	],
	"materials":[
		{
			"doubleSided":true,
			"extensions":{
				"KHR_materials_specular":{
					"specularColorFactor":[
						2.371357614441398,
						2.371357614441398,
						2.371357614441398
					]
				},
				"KHR_materials_ior":{
					"ior":1.4500000476837158
				}
			},
			"name":"Material #67",
			"pbrMetallicRoughness":{
				"baseColorFactor":[
					0.5,
					0.5,
					0.5,
					1
				],
				"metallicFactor":0,
				"roughnessFactor":0.5527864098548889
			}
		},
		{
			"doubleSided":true,
			"extensions":{
				"KHR_materials_specular":{
					"specularColorFactor":[
						2.371357614441398,
						2.371357614441398,
						2.371357614441398
					]
				},
				"KHR_materials_ior":{
					"ior":1.4500000476837158
				}
			},
			"name":"Material #33",
			"pbrMetallicRoughness":{
				"baseColorFactor":[
					0,
					0,
					0,
					1
				],
				"metallicFactor":0,
				"roughnessFactor":0.5527864098548889
			}
		},
		{
			"doubleSided":true,
			"extensions":{
				"KHR_materials_specular":{
					"specularColorFactor":[
						2.371357614441398,
						2.371357614441398,
						2.371357614441398
					]
				},
				"KHR_materials_ior":{
					"ior":1.4500000476837158
				}
			},
			"name":"Material #118",
			"pbrMetallicRoughness":{
				"baseColorFactor":[
					0,
					0,
					0,
					1
				],
				"metallicFactor":0,
				"roughnessFactor":0.5527864098548889
			}
		},
		{
			"doubleSided":true,
			"extensions":{
				"KHR_materials_specular":{
					"specularColorFactor":[
						2.371357614441398,
						2.371357614441398,
						2.371357614441398
					]
				},
				"KHR_materials_ior":{
					"ior":1.4500000476837158
				}
			},
			"name":"Material #115",
			"pbrMetallicRoughness":{
				"baseColorFactor":[
					0.5,
					0.5,
					0.5,
					1
				],
				"metallicFactor":0,
				"roughnessFactor":0.5527864098548889
			}
		}
	],
	"meshes":[
		{
			"name":"Maillage.027",
			"primitives":[
				{
					"attributes":{
						"POSITION":0,
						"NORMAL":1,
						"TEXCOORD_0":2
					},
					"indices":3,
					"material":0
				}
			]
		},
		{
			"name":"Maillage.016",
			"primitives":[
				{
					"attributes":{
						"POSITION":4,
						"NORMAL":5,
						"TEXCOORD_0":6
					},
					"indices":7,
					"material":1
				},
				{
					"attributes":{
						"POSITION":8,
						"NORMAL":9,
						"TEXCOORD_0":10
					},
					"indices":11,
					"material":0
				}
			]
		},
		{
			"name":"Maillage.015",
			"primitives":[
				{
					"attributes":{
						"POSITION":12,
						"NORMAL":13,
						"TEXCOORD_0":14
					},
					"indices":15,
					"material":0
				}
			]
		},
		{
			"name":"Maillage.008",
			"primitives":[
				{
					"attributes":{
						"POSITION":16,
						"NORMAL":17,
						"TEXCOORD_0":18
					},
					"indices":19,
					"material":2
				}
			]
		},
		{
			"name":"Maillage.007",
			"primitives":[
				{
					"attributes":{
						"POSITION":20,
						"NORMAL":21,
						"TEXCOORD_0":22
					},
					"indices":19,
					"material":2
				}
			]
		},
		{
			"name":"Maillage.013",
			"primitives":[
				{
					"attributes":{
						"POSITION":23,
						"NORMAL":24,
						"TEXCOORD_0":25
					},
					"indices":26,
					"material":3
				}
			]
		},
		{
			"name":"Maillage.026",
			"primitives":[
				{
					"attributes":{
						"POSITION":27,
						"NORMAL":28,
						"TEXCOORD_0":29
					},
					"indices":30,
					"material":2
				}
			]
		}
	],
	"accessors":[
		{
			"bufferView":0,
			"componentType":5126,
			"count":208,
			"max":[
				-0.235065758228302,
				1.7599999904632568,
				0.2952022850513458
			],
			"min":[
				-0.8350657224655151,
				-1.0490417423625331e-07,
				-0.30479779839515686
			],
			"type":"VEC3"
		},
		{
			"bufferView":1,
			"componentType":5126,
			"count":208,
			"type":"VEC3"
		},
		{
			"bufferView":2,
			"componentType":5126,
			"count":208,
			"type":"VEC2"
		},
		{
			"bufferView":3,
			"componentType":5123,
			"count":324,
			"type":"SCALAR"
		},
		{
			"bufferView":4,
			"componentType":5126,
			"count":16,
			"max":[
				-0.2373008131980896,
				0.6568081974983215,
				0.30724161863327026
			],
			"min":[
				-0.8323053121566772,
				0.3918081820011139,
				0.2912416160106659
			],
			"type":"VEC3"
		},
		{
			"bufferView":5,
			"componentType":5126,
			"count":16,
			"type":"VEC3"
		},
		{
			"bufferView":6,
			"componentType":5126,
			"count":16,
			"type":"VEC2"
		},
		{
			"bufferView":7,
			"componentType":5123,
			"count":24,
			"type":"SCALAR"
		},
		{
			"bufferView":8,
			"componentType":5126,
			"count":40,
			"max":[
				-0.2373008131980896,
				0.9816202521324158,
				0.30724161863327026
			],
			"min":[
				-0.8323053121566772,
				0.12800021469593048,
				0.2912416160106659
			],
			"type":"VEC3"
		},
		{
			"bufferView":9,
			"componentType":5126,
			"count":40,
			"type":"VEC3"
		},
		{
			"bufferView":10,
			"componentType":5126,
			"count":40,
			"type":"VEC2"
		},
		{
			"bufferView":11,
			"componentType":5123,
			"count":60,
			"type":"SCALAR"
		},
		{
			"bufferView":12,
			"componentType":5126,
			"count":24,
			"max":[
				-0.2373008131980896,
				1.7580585479736328,
				0.3112022280693054
			],
			"min":[
				-0.8323053121566772,
				0.9847478866577148,
				0.29520222544670105
			],
			"type":"VEC3"
		},
		{
			"bufferView":13,
			"componentType":5126,
			"count":24,
			"type":"VEC3"
		},
		{
			"bufferView":14,
			"componentType":5126,
			"count":24,
			"type":"VEC2"
		},
		{
			"bufferView":15,
			"componentType":5123,
			"count":36,
			"type":"SCALAR"
		},
		{
			"bufferView":16,
			"componentType":5126,
			"count":612,
			"max":[
				-0.404030442237854,
				0.9224893450737,
				0.3361646831035614
			],
			"min":[
				-0.654030442237854,
				0.9067323803901672,
				0.3072415888309479
			],
			"type":"VEC3"
		},
		{
			"bufferView":17,
			"componentType":5126,
			"count":612,
			"type":"VEC3"
		},
		{
			"bufferView":18,
			"componentType":5126,
			"count":612,
			"type":"VEC2"
		},
		{
			"bufferView":19,
			"componentType":5123,
			"count":612,
			"type":"SCALAR"
		},
		{
			"bufferView":20,
			"componentType":5126,
			"count":612,
			"max":[
				-0.404030442237854,
				1.0800648927688599,
				0.3401252329349518
			],
			"min":[
				-0.654030442237854,
				1.0643079280853271,
				0.31120213866233826
			],
			"type":"VEC3"
		},
		{
			"bufferView":21,
			"componentType":5126,
			"count":612,
			"type":"VEC3"
		},
		{
			"bufferView":22,
			"componentType":5126,
			"count":612,
			"type":"VEC2"
		},
		{
			"bufferView":23,
			"componentType":5126,
			"count":24,
			"max":[
				-0.2350659966468811,
				1.7860000133514404,
				0.3219507038593292
			],
			"min":[
				-0.8410123586654663,
				1.7599999904632568,
				-0.30479779839515686
			],
			"type":"VEC3"
		},
		{
			"bufferView":24,
			"componentType":5126,
			"count":24,
			"type":"VEC3"
		},
		{
			"bufferView":25,
			"componentType":5126,
			"count":24,
			"type":"VEC2"
		},
		{
			"bufferView":26,
			"componentType":5123,
			"count":36,
			"type":"SCALAR"
		},
		{
			"bufferView":27,
			"componentType":5126,
			"count":1716,
			"max":[
				-0.2671882212162018,
				0.10136763006448746,
				0.2896077036857605
			],
			"min":[
				-0.8029437065124512,
				0.026052452623844147,
				0.28660768270492554
			],
			"type":"VEC3"
		},
		{
			"bufferView":28,
			"componentType":5126,
			"count":1716,
			"type":"VEC3"
		},
		{
			"bufferView":29,
			"componentType":5126,
			"count":1716,
			"type":"VEC2"
		},
		{
			"bufferView":30,
			"componentType":5123,
			"count":1716,
			"type":"SCALAR"
		}
	],
	"bufferViews":[
		{
			"buffer":0,
			"byteLength":2496,
			"byteOffset":0,
			"target":34962
		},
		{
			"buffer":0,
			"byteLength":2496,
			"byteOffset":2496,
			"target":34962
		},
		{
			"buffer":0,
			"byteLength":1664,
			"byteOffset":4992,
			"target":34962
		},
		{
			"buffer":0,
			"byteLength":648,
			"byteOffset":6656,
			"target":34963
		},
		{
			"buffer":0,
			"byteLength":192,
			"byteOffset":7304,
			"target":34962
		},
		{
			"buffer":0,
			"byteLength":192,
			"byteOffset":7496,
			"target":34962
		},
		{
			"buffer":0,
			"byteLength":128,
			"byteOffset":7688,
			"target":34962
		},
		{
			"buffer":0,
			"byteLength":48,
			"byteOffset":7816,
			"target":34963
		},
		{
			"buffer":0,
			"byteLength":480,
			"byteOffset":7864,
			"target":34962
		},
		{
			"buffer":0,
			"byteLength":480,
			"byteOffset":8344,
			"target":34962
		},
		{
			"buffer":0,
			"byteLength":320,
			"byteOffset":8824,
			"target":34962
		},
		{
			"buffer":0,
			"byteLength":120,
			"byteOffset":9144,
			"target":34963
		},
		{
			"buffer":0,
			"byteLength":288,
			"byteOffset":9264,
			"target":34962
		},
		{
			"buffer":0,
			"byteLength":288,
			"byteOffset":9552,
			"target":34962
		},
		{
			"buffer":0,
			"byteLength":192,
			"byteOffset":9840,
			"target":34962
		},
		{
			"buffer":0,
			"byteLength":72,
			"byteOffset":10032,
			"target":34963
		},
		{
			"buffer":0,
			"byteLength":7344,
			"byteOffset":10104,
			"target":34962
		},
		{
			"buffer":0,
			"byteLength":7344,
			"byteOffset":17448,
			"target":34962
		},
		{
			"buffer":0,
			"byteLength":4896,
			"byteOffset":24792,
			"target":34962
		},
		{
			"buffer":0,
			"byteLength":1224,
			"byteOffset":29688,
			"target":34963
		},
		{
			"buffer":0,
			"byteLength":7344,
			"byteOffset":30912,
			"target":34962
		},
		{
			"buffer":0,
			"byteLength":7344,
			"byteOffset":38256,
			"target":34962
		},
		{
			"buffer":0,
			"byteLength":4896,
			"byteOffset":45600,
			"target":34962
		},
		{
			"buffer":0,
			"byteLength":288,
			"byteOffset":50496,
			"target":34962
		},
		{
			"buffer":0,
			"byteLength":288,
			"byteOffset":50784,
			"target":34962
		},
		{
			"buffer":0,
			"byteLength":192,
			"byteOffset":51072,
			"target":34962
		},
		{
			"buffer":0,
			"byteLength":72,
			"byteOffset":51264,
			"target":34963
		},
		{
			"buffer":0,
			"byteLength":20592,
			"byteOffset":51336,
			"target":34962
		},
		{
			"buffer":0,
			"byteLength":20592,
			"byteOffset":71928,
			"target":34962
		},
		{
			"buffer":0,
			"byteLength":13728,
			"byteOffset":92520,
			"target":34962
		},
		{
			"buffer":0,
			"byteLength":3432,
			"byteOffset":106248,
			"target":34963
		}
	],
	"buffers":[
		{
			"byteLength":109680,
			"uri":"data:application/octet-stream;base64,"
		}
	]
}
