{
	"asset":{
		"generator":"Khronos glTF Blender I/O v3.6.27",
		"version":"2.0"
	},
	"extensionsUsed":[
		"KHR_materials_specular",
		"KHR_materials_ior"
	],
	"scene":0,
	"scenes":[
		{
			"name":"Scene",
			"nodes":[
				14
			]
		}
	],
	"nodes":[
		{
			"mesh":0,
			"name":"Plate",
			"scale":[
				0.8295429348945618,
				1,
				1
			],
			"translation":[
				-545.662353515625,
				294.991943359375,
				-11.354645729064941
			]
		},
		{
			"children":[
				0
			],
			"name":"Bake",
			"translation":[
				45.4539794921875,
				-499.66705322265625,
				10.56597900390625
			]
		},
		{
			"mesh":1,
			"name":"Cupboard_500",
			"translation":[
				-499.9999084472656,
				-1022.6749877929688,
				-7.999992370605469
			]
		},
		{
			"mesh":2,
			"name":"Cupboard_50\u044534",
			"translation":[
				-499.9998474121094,
				452.67510986328125,
				-137.99984741210938
			]
		},
		{
			"children":[
				2,
				3
			],
			"name":"Cupboard",
			"translation":[
				-4.8001708984375,
				-0.00012221028737258166,
				-14.461532592773438
			]
		},
		{
			"mesh":3,
			"name":"Door_110_01",
			"translation":[
				-499.9602966308594,
				-425.27105712890625,
				129.47772216796875
			]
		},
		{
			"mesh":4,
			"name":"Door_265_01",
			"translation":[
				-499.9602966308594,
				-692.2711181640625,
				129.4777374267578
			]
		},
		{
			"mesh":5,
			"name":"Door_265_02",
			"translation":[
				-499.96026611328125,
				-959.2710571289062,
				129.47772216796875
			]
		},
		{
			"mesh":6,
			"name":"Door_500_01",
			"translation":[
				-499.960205078125,
				391.2711181640625,
				-471.7093811035156
			]
		},
		{
			"children":[
				5,
				6,
				7,
				8
			],
			"name":"Door",
			"translation":[
				-4.83990478515625,
				61.40410614013672,
				156.0607452392578
			]
		},
		{
			"mesh":7,
			"name":"Pen_001",
			"rotation":[
				0.5,
				-0.5,
				0.5000000596046448,
				0.4999999403953552
			],
			"translation":[
				-401.766357421875,
				-406.0487060546875,
				135.93922424316406
			]
		},
		{
			"mesh":8,
			"name":"Pen_002",
			"rotation":[
				0.5,
				-0.5,
				0.5000000596046448,
				0.4999999403953552
			],
			"translation":[
				-401.766357421875,
				-568.5525512695312,
				135.9392547607422
			]
		},
		{
			"mesh":9,
			"name":"Pen_007",
			"rotation":[
				0,
				-0.7071068286895752,
				0,
				0.7071067094802856
			],
			"translation":[
				-318.42919921875,
				326.4312744140625,
				-123.01622009277344
			]
		},
		{
			"children":[
				10,
				11,
				12
			],
			"name":"Pen",
			"translation":[
				14.9691162109375,
				127.70415496826172,
				178.52224731445312
			]
		},
		{
			"children":[
				1,
				4,
				9,
				13
			],
			"name":"Kitchen",
			"scale":[
				0.0010000000474974513,
				0.0010000000474974513,
				0.0010000000474974513
			],
			"translation":[
				0.5197343826293945,
				1.0226751565933228,
				0.017663728445768356
			]
		}
	],
	"materials":[
		{
			"doubleSided":true,
			"extensions":{
				"KHR_materials_specular":{
					"specularColorFactor":[
						2.371357614441398,
						2.371357614441398,
						2.371357614441398
					]
				},
				"KHR_materials_ior":{
					"ior":1.4500000476837158
				}
			},
			"name":"Material #114",
			"pbrMetallicRoughness":{
				"baseColorFactor":[
					0.5,
					0.5,
					0.5,
					1
				],
				"metallicFactor":0,
				"roughnessFactor":0.5527864098548889
			}
		},
		{
			"doubleSided":true,
			"extensions":{
				"KHR_materials_specular":{
					"specularColorFactor":[
						2.371357614441398,
						2.371357614441398,
						2.371357614441398
					]
				},
				"KHR_materials_ior":{
					"ior":1.4500000476837158
				}
			},
			"name":"Material #67",
			"pbrMetallicRoughness":{
				"baseColorFactor":[
					0.5,
					0.5,
					0.5,
					1
				],
				"metallicFactor":0,
				"roughnessFactor":0.5527864098548889
			}
		},
		{
			"doubleSided":true,
			"extensions":{
				"KHR_materials_specular":{
					"specularColorFactor":[
						2.371357614441398,
						2.371357614441398,
						2.371357614441398
					]
				},
				"KHR_materials_ior":{
					"ior":1.4500000476837158
				}
			},
			"name":"Material #33",
			"pbrMetallicRoughness":{
				"baseColorFactor":[
					0,
					0,
					0,
					1
				],
				"metallicFactor":0,
				"roughnessFactor":0.5527864098548889
			}
		},
		{
			"doubleSided":true,
			"extensions":{
				"KHR_materials_specular":{
					"specularColorFactor":[
						2.371357614441398,
						2.371357614441398,
						2.371357614441398
					]
				},
				"KHR_materials_ior":{
					"ior":1.4500000476837158
				}
			},
			"name":"Material #118",
			"pbrMetallicRoughness":{
				"baseColorFactor":[
					0,
					0,
					0,
					1
				],
				"metallicFactor":0,
				"roughnessFactor":0.5527864098548889
			}
		}
	],
	"meshes":[
		{
			"name":"Maillage.001",
			"primitives":[
				{
					"attributes":{
						"POSITION":0,
						"NORMAL":1,
						"TEXCOORD_0":2
					},
					"indices":3,
					"material":0
				}
			]
		},
		{
			"name":"Maillage.028",
			"primitives":[
				{
					"attributes":{
						"POSITION":4,
						"NORMAL":5,
						"TEXCOORD_0":6
					},
					"indices":7,
					"material":1
				}
			]
		},
		{
			"name":"Maillage.032",
			"primitives":[
				{
					"attributes":{
						"POSITION":8,
						"NORMAL":9,
						"TEXCOORD_0":10
					},
					"indices":11,
					"material":1
				}
			]
		},
		{
			"name":"Maillage.025",
			"primitives":[
				{
					"attributes":{
						"POSITION":12,
						"NORMAL":13,
						"TEXCOORD_0":14
					},
					"indices":3,
					"material":1
				}
			]
		},
		{
			"name":"Maillage.024",
			"primitives":[
				{
					"attributes":{
						"POSITION":15,
						"NORMAL":16,
						"TEXCOORD_0":17
					},
					"indices":3,
					"material":2
				}
			]
		},
		{
			"name":"Maillage.017",
			"primitives":[
				{
					"attributes":{
						"POSITION":18,
						"NORMAL":19,
						"TEXCOORD_0":20
					},
					"indices":3,
					"material":1
				}
			]
		},
		{
			"name":"Maillage.023",
			"primitives":[
				{
					"attributes":{
						"POSITION":21,
						"NORMAL":22,
						"TEXCOORD_0":23
					},
					"indices":24,
					"material":2
				}
			]
		},
		{
			"name":"Maillage.012",
			"primitives":[
				{
					"attributes":{
						"POSITION":25,
						"NORMAL":26,
						"TEXCOORD_0":27
					},
					"indices":28,
					"material":3
				}
			]
		},
		{
			"name":"Maillage.011",
			"primitives":[
				{
					"attributes":{
						"POSITION":29,
						"NORMAL":30,
						"TEXCOORD_0":31
					},
					"indices":28,
					"material":3
				}
			]
		},
		{
			"name":"Maillage.006",
			"primitives":[
				{
					"attributes":{
						"POSITION":32,
						"NORMAL":33,
						"TEXCOORD_0":34
					},
					"indices":28,
					"material":3
				}
			]
		}
	],
	"accessors":[
		{
			"bufferView":0,
			"componentType":5126,
			"count":24,
			"max":[
				295,
				5,
				295
			],
			"min":[
				-295,
				0,
				-295
			],
			"type":"VEC3"
		},
		{
			"bufferView":1,
			"componentType":5126,
			"count":24,
			"type":"VEC3"
		},
		{
			"bufferView":2,
			"componentType":5126,
			"count":24,
			"type":"VEC2"
		},
		{
			"bufferView":3,
			"componentType":5123,
			"count":36,
			"type":"SCALAR"
		},
		{
			"bufferView":4,
			"componentType":5126,
			"count":148,
			"max":[
				250,
				792.0000610351562,
				300.0000305175781
			],
			"min":[
				-250,
				-1.52587890625e-05,
				-300
			],
			"type":"VEC3"
		},
		{
			"bufferView":5,
			"componentType":5126,
			"count":148,
			"type":"VEC3"
		},
		{
			"bufferView":6,
			"componentType":5126,
			"count":148,
			"type":"VEC2"
		},
		{
			"bufferView":7,
			"componentType":5123,
			"count":222,
			"type":"SCALAR"
		},
		{
			"bufferView":8,
			"componentType":5126,
			"count":124,
			"max":[
				250,
				570,
				170.00001525878906
			],
			"min":[
				-250,
				0,
				-170
			],
			"type":"VEC3"
		},
		{
			"bufferView":9,
			"componentType":5126,
			"count":124,
			"type":"VEC3"
		},
		{
			"bufferView":10,
			"componentType":5126,
			"count":124,
			"type":"VEC2"
		},
		{
			"bufferView":11,
			"componentType":5123,
			"count":186,
			"type":"SCALAR"
		},
		{
			"bufferView":12,
			"componentType":5126,
			"count":24,
			"max":[
				250,
				124.40728759765625,
				8
			],
			"min":[
				-250,
				0,
				-8
			],
			"type":"VEC3"
		},
		{
			"bufferView":13,
			"componentType":5126,
			"count":24,
			"type":"VEC3"
		},
		{
			"bufferView":14,
			"componentType":5126,
			"count":24,
			"type":"VEC2"
		},
		{
			"bufferView":15,
			"componentType":5126,
			"count":24,
			"max":[
				250,
				265,
				8
			],
			"min":[
				-250,
				0,
				-8
			],
			"type":"VEC3"
		},
		{
			"bufferView":16,
			"componentType":5126,
			"count":24,
			"type":"VEC3"
		},
		{
			"bufferView":17,
			"componentType":5126,
			"count":24,
			"type":"VEC2"
		},
		{
			"bufferView":18,
			"componentType":5126,
			"count":24,
			"max":[
				250,
				265,
				8
			],
			"min":[
				-250,
				0,
				-8
			],
			"type":"VEC3"
		},
		{
			"bufferView":19,
			"componentType":5126,
			"count":24,
			"type":"VEC3"
		},
		{
			"bufferView":20,
			"componentType":5126,
			"count":24,
			"type":"VEC2"
		},
		{
			"bufferView":21,
			"componentType":5126,
			"count":24,
			"max":[
				248.00003051757812,
				568.0001220703125,
				350.2316589355469
			],
			"min":[
				-248.00003051757812,
				-20.16375732421875,
				334.2316589355469
			],
			"type":"VEC3"
		},
		{
			"bufferView":22,
			"componentType":5126,
			"count":24,
			"type":"VEC3"
		},
		{
			"bufferView":23,
			"componentType":5126,
			"count":24,
			"type":"VEC2"
		},
		{
			"bufferView":24,
			"componentType":5123,
			"count":36,
			"type":"SCALAR"
		},
		{
			"bufferView":25,
			"componentType":5126,
			"count":612,
			"max":[
				8,
				250,
				7.878462791442871
			],
			"min":[
				-20.92306900024414,
				0,
				-7.878462314605713
			],
			"type":"VEC3"
		},
		{
			"bufferView":26,
			"componentType":5126,
			"count":612,
			"type":"VEC3"
		},
		{
			"bufferView":27,
			"componentType":5126,
			"count":612,
			"type":"VEC2"
		},
		{
			"bufferView":28,
			"componentType":5123,
			"count":612,
			"type":"SCALAR"
		},
		{
			"bufferView":29,
			"componentType":5126,
			"count":612,
			"max":[
				8,
				250,
				7.878462791442871
			],
			"min":[
				-20.92306900024414,
				0,
				-7.878462314605713
			],
			"type":"VEC3"
		},
		{
			"bufferView":30,
			"componentType":5126,
			"count":612,
			"type":"VEC3"
		},
		{
			"bufferView":31,
			"componentType":5126,
			"count":612,
			"type":"VEC2"
		},
		{
			"bufferView":32,
			"componentType":5126,
			"count":612,
			"max":[
				8,
				250,
				7.878462791442871
			],
			"min":[
				-20.92306900024414,
				0,
				-7.878462314605713
			],
			"type":"VEC3"
		},
		{
			"bufferView":33,
			"componentType":5126,
			"count":612,
			"type":"VEC3"
		},
		{
			"bufferView":34,
			"componentType":5126,
			"count":612,
			"type":"VEC2"
		}
	],
	"bufferViews":[
		{
			"buffer":0,
			"byteLength":288,
			"byteOffset":0,
			"target":34962
		},
		{
			"buffer":0,
			"byteLength":288,
			"byteOffset":288,
			"target":34962
		},
		{
			"buffer":0,
			"byteLength":192,
			"byteOffset":576,
			"target":34962
		},
		{
			"buffer":0,
			"byteLength":72,
			"byteOffset":768,
			"target":34963
		},
		{
			"buffer":0,
			"byteLength":1776,
			"byteOffset":840,
			"target":34962
		},
		{
			"buffer":0,
			"byteLength":1776,
			"byteOffset":2616,
			"target":34962
		},
		{
			"buffer":0,
			"byteLength":1184,
			"byteOffset":4392,
			"target":34962
		},
		{
			"buffer":0,
			"byteLength":444,
			"byteOffset":5576,
			"target":34963
		},
		{
			"buffer":0,
			"byteLength":1488,
			"byteOffset":6020,
			"target":34962
		},
		{
			"buffer":0,
			"byteLength":1488,
			"byteOffset":7508,
			"target":34962
		},
		{
			"buffer":0,
			"byteLength":992,
			"byteOffset":8996,
			"target":34962
		},
		{
			"buffer":0,
			"byteLength":372,
			"byteOffset":9988,
			"target":34963
		},
		{
			"buffer":0,
			"byteLength":288,
			"byteOffset":10360,
			"target":34962
		},
		{
			"buffer":0,
			"byteLength":288,
			"byteOffset":10648,
			"target":34962
		},
		{
			"buffer":0,
			"byteLength":192,
			"byteOffset":10936,
			"target":34962
		},
		{
			"buffer":0,
			"byteLength":288,
			"byteOffset":11128,
			"target":34962
		},
		{
			"buffer":0,
			"byteLength":288,
			"byteOffset":11416,
			"target":34962
		},
		{
			"buffer":0,
			"byteLength":192,
			"byteOffset":11704,
			"target":34962
		},
		{
			"buffer":0,
			"byteLength":288,
			"byteOffset":11896,
			"target":34962
		},
		{
			"buffer":0,
			"byteLength":288,
			"byteOffset":12184,
			"target":34962
		},
		{
			"buffer":0,
			"byteLength":192,
			"byteOffset":12472,
			"target":34962
		},
		{
			"buffer":0,
			"byteLength":288,
			"byteOffset":12664,
			"target":34962
		},
		{
			"buffer":0,
			"byteLength":288,
			"byteOffset":12952,
			"target":34962
		},
		{
			"buffer":0,
			"byteLength":192,
			"byteOffset":13240,
			"target":34962
		},
		{
			"buffer":0,
			"byteLength":72,
			"byteOffset":13432,
			"target":34963
		},
		{
			"buffer":0,
			"byteLength":7344,
			"byteOffset":13504,
			"target":34962
		},
		{
			"buffer":0,
			"byteLength":7344,
			"byteOffset":20848,
			"target":34962
		},
		{
			"buffer":0,
			"byteLength":4896,
			"byteOffset":28192,
			"target":34962
		},
		{
			"buffer":0,
			"byteLength":1224,
			"byteOffset":33088,
			"target":34963
		},
		{
			"buffer":0,
			"byteLength":7344,
			"byteOffset":34312,
			"target":34962
		},
		{
			"buffer":0,
			"byteLength":7344,
			"byteOffset":41656,
			"target":34962
		},
		{
			"buffer":0,
			"byteLength":4896,
			"byteOffset":49000,
			"target":34962
		},
		{
			"buffer":0,
			"byteLength":7344,
			"byteOffset":53896,
			"target":34962
		},
		{
			"buffer":0,
			"byteLength":7344,
			"byteOffset":61240,
			"target":34962
		},
		{
			"buffer":0,
			"byteLength":4896,
			"byteOffset":68584,
			"target":34962
		}
	],
	"buffers":[
		{
			"byteLength":73480,
			"uri":"data:application/octet-stream;base64,"
		}
	]
}
