{
	"asset":{
		"generator":"Khronos glTF Blender I/O v3.6.27",
		"version":"2.0"
	},
	"extensionsUsed":[
		"KHR_materials_specular",
		"KHR_materials_ior"
	],
	"scene":0,
	"scenes":[
		{
			"name":"Scene",
			"nodes":[
				9
			]
		}
	],
	"nodes":[
		{
			"mesh":0,
			"name":"Oven",
			"translation":[
				-0.25433349609375,
				359.98193359375,
				-203.77804565429688
			]
		},
		{
			"mesh":1,
			"name":"Plate",
			"translation":[
				-1.7625732421875,
				294.991943359375,
				-11.354642868041992
			]
		},
		{
			"children":[
				0,
				1
			],
			"name":"Bake",
			"translation":[
				45.4539794921875,
				-499.66705322265625,
				10.56597900390625
			]
		},
		{
			"mesh":2,
			"name":"Cupboard_600",
			"translation":[
				0.0001220703125,
				-1022.6751098632812,
				-7.9999918937683105
			]
		},
		{
			"children":[
				3
			],
			"name":"Cupboard",
			"translation":[
				-4.8001708984375,
				-0.0001220703125,
				-14.461531639099121
			]
		},
		{
			"mesh":3,
			"name":"Object001",
			"translation":[
				0.03985595703125,
				-1084.0787353515625,
				-330.21624755859375
			]
		},
		{
			"children":[
				5
			],
			"name":"Door",
			"translation":[
				-4.83984375,
				61.40411376953125,
				156.0607452392578
			]
		},
		{
			"name":"Pen",
			"translation":[
				14.9691162109375,
				127.70416259765625,
				178.52224731445312
			]
		},
		{
			"name":"Table",
			"translation":[
				0,
				266.32501220703125,
				-4.609618186950684
			]
		},
		{
			"children":[
				2,
				4,
				6,
				7,
				8
			],
			"name":"Kitchen",
			"scale":[
				0.0010000000474974513,
				0.0010000000474974513,
				0.0010000000474974513
			],
			"translation":[
				0.5197343826293945,
				1.0226751565933228,
				0.017663728445768356
			]
		}
	],
	"materials":[
		{
			"doubleSided":true,
			"extensions":{
				"KHR_materials_specular":{
					"specularColorFactor":[
						2.371357614441398,
						2.371357614441398,
						2.371357614441398
					]
				},
				"KHR_materials_ior":{
					"ior":1.4500000476837158
				}
			},
			"name":"Material #25.001",
			"pbrMetallicRoughness":{
				"baseColorFactor":[
					0.5,
					0.5,
					0.5,
					1
				],
				"metallicFactor":0,
				"roughnessFactor":0.5527864098548889
			}
		},
		{
			"doubleSided":true,
			"extensions":{
				"KHR_materials_specular":{
					"specularColorFactor":[
						2.371357614441398,
						2.371357614441398,
						2.371357614441398
					]
				},
				"KHR_materials_ior":{
					"ior":1.4500000476837158
				}
			},
			"name":"Material #119.001",
			"pbrMetallicRoughness":{
				"baseColorFactor":[
					0,
					0,
					0,
					1
				],
				"metallicFactor":0,
				"roughnessFactor":0.5527864098548889
			}
		},
		{
			"doubleSided":true,
			"extensions":{
				"KHR_materials_specular":{
					"specularColorFactor":[
						2.371357614441398,
						2.371357614441398,
						2.371357614441398
					]
				},
				"KHR_materials_ior":{
					"ior":1.4500000476837158
				}
			},
			"name":"Material #118.001",
			"pbrMetallicRoughness":{
				"baseColorFactor":[
					0,
					0,
					0,
					1
				],
				"metallicFactor":0,
				"roughnessFactor":0.5527864098548889
			}
		},
		{
			"doubleSided":true,
			"extensions":{
				"KHR_materials_specular":{
					"specularColorFactor":[
						2.371357614441398,
						2.371357614441398,
						2.371357614441398
					]
				},
				"KHR_materials_ior":{
					"ior":1.4500000476837158
				}
			},
			"name":"Glass_Clear.001",
			"pbrMetallicRoughness":{
				"baseColorFactor":[
					0,
					0,
					0,
					1
				],
				"metallicFactor":0,
				"roughnessFactor":0.5527864098548889
			}
		},
		{
			"doubleSided":true,
			"extensions":{
				"KHR_materials_specular":{
					"specularColorFactor":[
						2.371357614441398,
						2.371357614441398,
						2.371357614441398
					]
				},
				"KHR_materials_ior":{
					"ior":1.4500000476837158
				}
			},
			"name":"Material #200.001",
			"pbrMetallicRoughness":{
				"baseColorFactor":[
					0.5,
					0.5,
					0.5,
					1
				],
				"metallicFactor":0,
				"roughnessFactor":0.5527864098548889
			}
		},
		{
			"doubleSided":true,
			"extensions":{
				"KHR_materials_specular":{
					"specularColorFactor":[
						2.371357614441398,
						2.371357614441398,
						2.371357614441398
					]
				},
				"KHR_materials_ior":{
					"ior":1.4500000476837158
				}
			},
			"name":"Material #114.001",
			"pbrMetallicRoughness":{
				"baseColorFactor":[
					0.5,
					0.5,
					0.5,
					1
				],
				"metallicFactor":0,
				"roughnessFactor":0.5527864098548889
			}
		},
		{
			"doubleSided":true,
			"extensions":{
				"KHR_materials_specular":{
					"specularColorFactor":[
						2.371357614441398,
						2.371357614441398,
						2.371357614441398
					]
				},
				"KHR_materials_ior":{
					"ior":1.4500000476837158
				}
			},
			"name":"Material #67.001",
			"pbrMetallicRoughness":{
				"baseColorFactor":[
					0.5,
					0.5,
					0.5,
					1
				],
				"metallicFactor":0,
				"roughnessFactor":0.5527864098548889
			}
		}
	],
	"meshes":[
		{
			"name":"Maillage.033",
			"primitives":[
				{
					"attributes":{
						"POSITION":0,
						"NORMAL":1,
						"TEXCOORD_0":2
					},
					"indices":3,
					"material":0
				},
				{
					"attributes":{
						"POSITION":4,
						"NORMAL":5,
						"TEXCOORD_0":6
					},
					"indices":7,
					"material":1
				},
				{
					"attributes":{
						"POSITION":8,
						"NORMAL":9,
						"TEXCOORD_0":10
					},
					"indices":11,
					"material":2
				},
				{
					"attributes":{
						"POSITION":12,
						"NORMAL":13,
						"TEXCOORD_0":14
					},
					"indices":15,
					"material":3
				},
				{
					"attributes":{
						"POSITION":16,
						"NORMAL":17,
						"TEXCOORD_0":18
					},
					"indices":19,
					"material":4
				}
			]
		},
		{
			"name":"Maillage.034",
			"primitives":[
				{
					"attributes":{
						"POSITION":20,
						"NORMAL":21,
						"TEXCOORD_0":22
					},
					"indices":23,
					"material":5
				}
			]
		},
		{
			"name":"Maillage.062",
			"primitives":[
				{
					"attributes":{
						"POSITION":24,
						"NORMAL":25,
						"TEXCOORD_0":26
					},
					"indices":27,
					"material":6
				}
			]
		},
		{
			"name":"Maillage.051",
			"primitives":[
				{
					"attributes":{
						"POSITION":28,
						"NORMAL":29,
						"TEXCOORD_0":30
					},
					"indices":31,
					"material":6
				}
			]
		}
	],
	"accessors":[
		{
			"bufferView":0,
			"componentType":5126,
			"count":36,
			"max":[
				284,
				-218.91720581054688,
				472.25054931640625
			],
			"min":[
				-283.9998779296875,
				-244.08642578125,
				469.25054931640625
			],
			"type":"VEC3"
		},
		{
			"bufferView":1,
			"componentType":5126,
			"count":36,
			"type":"VEC3"
		},
		{
			"bufferView":2,
			"componentType":5126,
			"count":36,
			"type":"VEC2"
		},
		{
			"bufferView":3,
			"componentType":5123,
			"count":36,
			"type":"SCALAR"
		},
		{
			"bufferView":4,
			"componentType":5126,
			"count":336,
			"max":[
				297.016845703125,
				-99.7747802734375,
				486.7506103515625
			],
			"min":[
				-296.3638916015625,
				-659.973876953125,
				470.7506103515625
			],
			"type":"VEC3"
		},
		{
			"bufferView":5,
			"componentType":5126,
			"count":336,
			"type":"VEC3"
		},
		{
			"bufferView":6,
			"componentType":5126,
			"count":336,
			"type":"VEC2"
		},
		{
			"bufferView":7,
			"componentType":5123,
			"count":336,
			"type":"SCALAR"
		},
		{
			"bufferView":8,
			"componentType":5126,
			"count":8580,
			"max":[
				250.042236328125,
				-139.4537811279297,
				510.1326904296875
			],
			"min":[
				-248.697265625,
				-310.2333068847656,
				486.7506103515625
			],
			"type":"VEC3"
		},
		{
			"bufferView":9,
			"componentType":5126,
			"count":8580,
			"type":"VEC3"
		},
		{
			"bufferView":10,
			"componentType":5126,
			"count":8580,
			"type":"VEC2"
		},
		{
			"bufferView":11,
			"componentType":5123,
			"count":8580,
			"type":"SCALAR"
		},
		{
			"bufferView":12,
			"componentType":5126,
			"count":6,
			"max":[
				185.75799560546875,
				-349.285888671875,
				483.6436767578125
			],
			"min":[
				-185.10501098632812,
				-539.1507568359375,
				483.6436767578125
			],
			"type":"VEC3"
		},
		{
			"bufferView":13,
			"componentType":5126,
			"count":6,
			"type":"VEC3"
		},
		{
			"bufferView":14,
			"componentType":5126,
			"count":6,
			"type":"VEC2"
		},
		{
			"bufferView":15,
			"componentType":5123,
			"count":6,
			"type":"SCALAR"
		},
		{
			"bufferView":16,
			"componentType":5126,
			"count":6,
			"max":[
				185.758056640625,
				-349.285888671875,
				470.721923828125
			],
			"min":[
				-185.10494995117188,
				-539.1507568359375,
				470.721923828125
			],
			"type":"VEC3"
		},
		{
			"bufferView":17,
			"componentType":5126,
			"count":6,
			"type":"VEC3"
		},
		{
			"bufferView":18,
			"componentType":5126,
			"count":6,
			"type":"VEC2"
		},
		{
			"bufferView":19,
			"componentType":5123,
			"count":6,
			"type":"SCALAR"
		},
		{
			"bufferView":20,
			"componentType":5126,
			"count":24,
			"max":[
				295,
				5,
				295
			],
			"min":[
				-295,
				0,
				-295
			],
			"type":"VEC3"
		},
		{
			"bufferView":21,
			"componentType":5126,
			"count":24,
			"type":"VEC3"
		},
		{
			"bufferView":22,
			"componentType":5126,
			"count":24,
			"type":"VEC2"
		},
		{
			"bufferView":23,
			"componentType":5123,
			"count":36,
			"type":"SCALAR"
		},
		{
			"bufferView":24,
			"componentType":5126,
			"count":168,
			"max":[
				349.99993896484375,
				792.0001220703125,
				300.00006103515625
			],
			"min":[
				-250,
				1.430511474609375e-05,
				-300
			],
			"type":"VEC3"
		},
		{
			"bufferView":25,
			"componentType":5126,
			"count":168,
			"type":"VEC3"
		},
		{
			"bufferView":26,
			"componentType":5126,
			"count":168,
			"type":"VEC2"
		},
		{
			"bufferView":27,
			"componentType":5123,
			"count":252,
			"type":"SCALAR"
		},
		{
			"bufferView":28,
			"componentType":5126,
			"count":24,
			"max":[
				347.65167236328125,
				220.21115112304688,
				467.6940612792969
			],
			"min":[
				-245.518310546875,
				127.9999771118164,
				451.6940612792969
			],
			"type":"VEC3"
		},
		{
			"bufferView":29,
			"componentType":5126,
			"count":24,
			"type":"VEC3"
		},
		{
			"bufferView":30,
			"componentType":5126,
			"count":24,
			"type":"VEC2"
		},
		{
			"bufferView":31,
			"componentType":5123,
			"count":36,
			"type":"SCALAR"
		}
	],
	"bufferViews":[
		{
			"buffer":0,
			"byteLength":432,
			"byteOffset":0,
			"target":34962
		},
		{
			"buffer":0,
			"byteLength":432,
			"byteOffset":432,
			"target":34962
		},
		{
			"buffer":0,
			"byteLength":288,
			"byteOffset":864,
			"target":34962
		},
		{
			"buffer":0,
			"byteLength":72,
			"byteOffset":1152,
			"target":34963
		},
		{
			"buffer":0,
			"byteLength":4032,
			"byteOffset":1224,
			"target":34962
		},
		{
			"buffer":0,
			"byteLength":4032,
			"byteOffset":5256,
			"target":34962
		},
		{
			"buffer":0,
			"byteLength":2688,
			"byteOffset":9288,
			"target":34962
		},
		{
			"buffer":0,
			"byteLength":672,
			"byteOffset":11976,
			"target":34963
		},
		{
			"buffer":0,
			"byteLength":102960,
			"byteOffset":12648,
			"target":34962
		},
		{
			"buffer":0,
			"byteLength":102960,
			"byteOffset":115608,
			"target":34962
		},
		{
			"buffer":0,
			"byteLength":68640,
			"byteOffset":218568,
			"target":34962
		},
		{
			"buffer":0,
			"byteLength":17160,
			"byteOffset":287208,
			"target":34963
		},
		{
			"buffer":0,
			"byteLength":72,
			"byteOffset":304368,
			"target":34962
		},
		{
			"buffer":0,
			"byteLength":72,
			"byteOffset":304440,
			"target":34962
		},
		{
			"buffer":0,
			"byteLength":48,
			"byteOffset":304512,
			"target":34962
		},
		{
			"buffer":0,
			"byteLength":12,
			"byteOffset":304560,
			"target":34963
		},
		{
			"buffer":0,
			"byteLength":72,
			"byteOffset":304572,
			"target":34962
		},
		{
			"buffer":0,
			"byteLength":72,
			"byteOffset":304644,
			"target":34962
		},
		{
			"buffer":0,
			"byteLength":48,
			"byteOffset":304716,
			"target":34962
		},
		{
			"buffer":0,
			"byteLength":12,
			"byteOffset":304764,
			"target":34963
		},
		{
			"buffer":0,
			"byteLength":288,
			"byteOffset":304776,
			"target":34962
		},
		{
			"buffer":0,
			"byteLength":288,
			"byteOffset":305064,
			"target":34962
		},
		{
			"buffer":0,
			"byteLength":192,
			"byteOffset":305352,
			"target":34962
		},
		{
			"buffer":0,
			"byteLength":72,
			"byteOffset":305544,
			"target":34963
		},
		{
			"buffer":0,
			"byteLength":2016,
			"byteOffset":305616,
			"target":34962
		},
		{
			"buffer":0,
			"byteLength":2016,
			"byteOffset":307632,
			"target":34962
		},
		{
			"buffer":0,
			"byteLength":1344,
			"byteOffset":309648,
			"target":34962
		},
		{
			"buffer":0,
			"byteLength":504,
			"byteOffset":310992,
			"target":34963
		},
		{
			"buffer":0,
			"byteLength":288,
			"byteOffset":311496,
			"target":34962
		},
		{
			"buffer":0,
			"byteLength":288,
			"byteOffset":311784,
			"target":34962
		},
		{
			"buffer":0,
			"byteLength":192,
			"byteOffset":312072,
			"target":34962
		},
		{
			"buffer":0,
			"byteLength":72,
			"byteOffset":312264,
			"target":34963
		}
	],
	"buffers":[
		{
			"byteLength":312336,
			"uri":"data:application/octet-stream;base64,"
		}
	]
}
