{
	"asset":{
		"generator":"Khronos glTF Blender I/O v3.6.27",
		"version":"2.0"
	},
	"extensionsUsed":[
		"KHR_materials_specular",
		"KHR_materials_ior"
	],
	"scene":0,
	"scenes":[
		{
			"name":"Scene",
			"nodes":[
				18
			]
		}
	],
	"nodes":[
		{
			"name":"Bake",
			"translation":[
				45.4539794921875,
				-499.66705322265625,
				10.56597900390625
			]
		},
		{
			"mesh":0,
			"name":"Cupboard_1000",
			"translation":[
				600,
				-1022.6751098632812,
				-7.999992370605469
			]
		},
		{
			"mesh":1,
			"name":"Cupboard_1000_340",
			"translation":[
				1099.999755859375,
				452.67510986328125,
				-137.99984741210938
			]
		},
		{
			"children":[
				1,
				2
			],
			"name":"Cupboard",
			"translation":[
				-4.8001708984375,
				-0.00012221028737258166,
				-14.461532592773438
			]
		},
		{
			"mesh":2,
			"name":"Door_500_02",
			"translation":[
				599.2854614257812,
				391.2711181640625,
				-471.7093811035156
			]
		},
		{
			"mesh":3,
			"name":"Door_500_03",
			"translation":[
				1099.199951171875,
				391.2711181640625,
				-471.7093811035156
			]
		},
		{
			"mesh":4,
			"name":"Door_500_04",
			"translation":[
				1099.199951171875,
				-935.9152221679688,
				-212.75392150878906
			]
		},
		{
			"mesh":5,
			"name":"Door_500_05",
			"translation":[
				599.3948364257812,
				-935.9152221679688,
				-212.75392150878906
			]
		},
		{
			"children":[
				4,
				5,
				6,
				7
			],
			"name":"Door",
			"translation":[
				-4.83990478515625,
				61.40410614013672,
				156.0607452392578
			]
		},
		{
			"mesh":6,
			"name":"Pen_003",
			"rotation":[
				0.5,
				-0.5,
				0.5000000596046448,
				0.4999999403953552
			],
			"translation":[
				697.33056640625,
				-568.5525512695312,
				135.9392547607422
			]
		},
		{
			"mesh":7,
			"name":"Pen_004",
			"rotation":[
				0.5,
				-0.5,
				0.5000000596046448,
				0.4999999403953552
			],
			"translation":[
				1188.73388671875,
				-568.5525512695312,
				135.9392547607422
			]
		},
		{
			"mesh":8,
			"name":"Pen_008",
			"rotation":[
				0,
				-0.7071068286895752,
				0,
				0.7071067094802856
			],
			"translation":[
				781.978759765625,
				326.4312744140625,
				-123.01622009277344
			]
		},
		{
			"mesh":9,
			"name":"Pen_009",
			"rotation":[
				0,
				-0.7071068286895752,
				0,
				0.7071067094802856
			],
			"translation":[
				873.439453125,
				326.4312744140625,
				-123.01622009277344
			]
		},
		{
			"children":[
				9,
				10,
				11,
				12
			],
			"name":"Pen",
			"translation":[
				14.9691162109375,
				127.70415496826172,
				178.52224731445312
			]
		},
		{
			"mesh":10,
			"name":"Crane",
			"rotation":[
				0.4995078444480896,
				0.5004917979240417,
				-0.5004919171333313,
				0.4995076060295105
			],
			"translation":[
				-231.5140380859375,
				5.335460662841797,
				-264.15863037109375
			]
		},
		{
			"mesh":11,
			"name":"Sink.001",
			"translation":[
				-0.0001220703125,
				-16.091676712036133,
				22.944915771484375
			]
		},
		{
			"children":[
				14,
				15
			],
			"name":"Sink",
			"translation":[
				863.7594604492188,
				-169.89892578125,
				-12.856536865234375
			]
		},
		{
			"name":"Table",
			"translation":[
				-6.103515625e-05,
				266.32501220703125,
				-4.609619140625
			]
		},
		{
			"children":[
				0,
				3,
				8,
				13,
				16,
				17
			],
			"name":"Kitchen",
			"scale":[
				0.0010000000474974513,
				0.0010000000474974513,
				0.0010000000474974513
			],
			"translation":[
				0.5197343826293945,
				1.0226751565933228,
				0.017663728445768356
			]
		}
	],
	"materials":[
		{
			"doubleSided":true,
			"extensions":{
				"KHR_materials_specular":{
					"specularColorFactor":[
						2.371357614441398,
						2.371357614441398,
						2.371357614441398
					]
				},
				"KHR_materials_ior":{
					"ior":1.4500000476837158
				}
			},
			"name":"Material #67.001",
			"pbrMetallicRoughness":{
				"baseColorFactor":[
					0.5,
					0.5,
					0.5,
					1
				],
				"metallicFactor":0,
				"roughnessFactor":0.5527864098548889
			}
		},
		{
			"doubleSided":true,
			"extensions":{
				"KHR_materials_specular":{
					"specularColorFactor":[
						2.371357614441398,
						2.371357614441398,
						2.371357614441398
					]
				},
				"KHR_materials_ior":{
					"ior":1.4500000476837158
				}
			},
			"name":"Material #33.001",
			"pbrMetallicRoughness":{
				"baseColorFactor":[
					0,
					0,
					0,
					1
				],
				"metallicFactor":0,
				"roughnessFactor":0.5527864098548889
			}
		},
		{
			"doubleSided":true,
			"extensions":{
				"KHR_materials_specular":{
					"specularColorFactor":[
						2.371357614441398,
						2.371357614441398,
						2.371357614441398
					]
				},
				"KHR_materials_ior":{
					"ior":1.4500000476837158
				}
			},
			"name":"Material #25.001",
			"pbrMetallicRoughness":{
				"baseColorFactor":[
					0.5,
					0.5,
					0.5,
					1
				],
				"metallicFactor":0,
				"roughnessFactor":0.5527864098548889
			}
		},
		{
			"doubleSided":true,
			"extensions":{
				"KHR_materials_specular":{
					"specularColorFactor":[
						2.371357614441398,
						2.371357614441398,
						2.371357614441398
					]
				},
				"KHR_materials_ior":{
					"ior":1.4500000476837158
				}
			},
			"name":"Material #118.001",
			"pbrMetallicRoughness":{
				"baseColorFactor":[
					0,
					0,
					0,
					1
				],
				"metallicFactor":0,
				"roughnessFactor":0.5527864098548889
			}
		}
	],
	"meshes":[
		{
			"name":"Maillage.063",
			"primitives":[
				{
					"attributes":{
						"POSITION":0,
						"NORMAL":1,
						"TEXCOORD_0":2
					},
					"indices":3,
					"material":0
				}
			]
		},
		{
			"name":"Maillage.064",
			"primitives":[
				{
					"attributes":{
						"POSITION":4,
						"NORMAL":5,
						"TEXCOORD_0":6
					},
					"indices":7,
					"material":0
				}
			]
		},
		{
			"name":"Maillage.054",
			"primitives":[
				{
					"attributes":{
						"POSITION":8,
						"NORMAL":9,
						"TEXCOORD_0":10
					},
					"indices":11,
					"material":1
				}
			]
		},
		{
			"name":"Maillage.055",
			"primitives":[
				{
					"attributes":{
						"POSITION":12,
						"NORMAL":13,
						"TEXCOORD_0":14
					},
					"indices":11,
					"material":1
				}
			]
		},
		{
			"name":"Maillage.053",
			"primitives":[
				{
					"attributes":{
						"POSITION":15,
						"NORMAL":16,
						"TEXCOORD_0":17
					},
					"indices":18,
					"material":0
				},
				{
					"attributes":{
						"POSITION":19,
						"NORMAL":20,
						"TEXCOORD_0":21
					},
					"indices":22,
					"material":1
				}
			]
		},
		{
			"name":"Maillage.052",
			"primitives":[
				{
					"attributes":{
						"POSITION":23,
						"NORMAL":24,
						"TEXCOORD_0":25
					},
					"indices":26,
					"material":2
				},
				{
					"attributes":{
						"POSITION":27,
						"NORMAL":28,
						"TEXCOORD_0":29
					},
					"indices":22,
					"material":1
				},
				{
					"attributes":{
						"POSITION":30,
						"NORMAL":31,
						"TEXCOORD_0":32
					},
					"indices":33,
					"material":0
				}
			]
		},
		{
			"name":"Maillage.043",
			"primitives":[
				{
					"attributes":{
						"POSITION":34,
						"NORMAL":35,
						"TEXCOORD_0":36
					},
					"indices":37,
					"material":3
				}
			]
		},
		{
			"name":"Maillage.042",
			"primitives":[
				{
					"attributes":{
						"POSITION":38,
						"NORMAL":39,
						"TEXCOORD_0":40
					},
					"indices":37,
					"material":3
				}
			]
		},
		{
			"name":"Maillage.038",
			"primitives":[
				{
					"attributes":{
						"POSITION":41,
						"NORMAL":42,
						"TEXCOORD_0":43
					},
					"indices":37,
					"material":3
				}
			]
		},
		{
			"name":"Maillage.037",
			"primitives":[
				{
					"attributes":{
						"POSITION":44,
						"NORMAL":45,
						"TEXCOORD_0":46
					},
					"indices":37,
					"material":3
				}
			]
		},
		{
			"name":"Maillage.036",
			"primitives":[
				{
					"attributes":{
						"POSITION":47,
						"NORMAL":48,
						"TEXCOORD_0":49
					},
					"indices":50,
					"material":3
				}
			]
		},
		{
			"name":"Maillage.035",
			"primitives":[
				{
					"attributes":{
						"POSITION":51,
						"NORMAL":52,
						"TEXCOORD_0":53
					},
					"indices":54,
					"material":3
				}
			]
		}
	],
	"accessors":[
		{
			"bufferView":0,
			"componentType":5126,
			"count":172,
			"max":[
				750.0000610351562,
				792.0001220703125,
				315.9999694824219
			],
			"min":[
				-250,
				1.430511474609375e-05,
				-300
			],
			"type":"VEC3"
		},
		{
			"bufferView":1,
			"componentType":5126,
			"count":172,
			"type":"VEC3"
		},
		{
			"bufferView":2,
			"componentType":5126,
			"count":172,
			"type":"VEC2"
		},
		{
			"bufferView":3,
			"componentType":5123,
			"count":258,
			"type":"SCALAR"
		},
		{
			"bufferView":4,
			"componentType":5126,
			"count":124,
			"max":[
				250,
				570,
				170.00001525878906
			],
			"min":[
				-749.9999389648438,
				0,
				-170
			],
			"type":"VEC3"
		},
		{
			"bufferView":5,
			"componentType":5126,
			"count":124,
			"type":"VEC3"
		},
		{
			"bufferView":6,
			"componentType":5126,
			"count":124,
			"type":"VEC2"
		},
		{
			"bufferView":7,
			"componentType":5123,
			"count":186,
			"type":"SCALAR"
		},
		{
			"bufferView":8,
			"componentType":5126,
			"count":24,
			"max":[
				248.00003051757812,
				568.0001220703125,
				350.2316589355469
			],
			"min":[
				-248.00003051757812,
				-20.16375732421875,
				334.2316589355469
			],
			"type":"VEC3"
		},
		{
			"bufferView":9,
			"componentType":5126,
			"count":24,
			"type":"VEC3"
		},
		{
			"bufferView":10,
			"componentType":5126,
			"count":24,
			"type":"VEC2"
		},
		{
			"bufferView":11,
			"componentType":5123,
			"count":36,
			"type":"SCALAR"
		},
		{
			"bufferView":12,
			"componentType":5126,
			"count":24,
			"max":[
				248.00003051757812,
				568.0001220703125,
				350.2316589355469
			],
			"min":[
				-248.00003051757812,
				-20.16375732421875,
				334.2316589355469
			],
			"type":"VEC3"
		},
		{
			"bufferView":13,
			"componentType":5126,
			"count":24,
			"type":"VEC3"
		},
		{
			"bufferView":14,
			"componentType":5126,
			"count":24,
			"type":"VEC2"
		},
		{
			"bufferView":15,
			"componentType":5126,
			"count":20,
			"max":[
				248.00003051757812,
				244.24020385742188,
				350.2316589355469
			],
			"min":[
				-248.00003051757812,
				-20.16375732421875,
				334.2316589355469
			],
			"type":"VEC3"
		},
		{
			"bufferView":16,
			"componentType":5126,
			"count":20,
			"type":"VEC3"
		},
		{
			"bufferView":17,
			"componentType":5126,
			"count":20,
			"type":"VEC2"
		},
		{
			"bufferView":18,
			"componentType":5123,
			"count":30,
			"type":"SCALAR"
		},
		{
			"bufferView":19,
			"componentType":5126,
			"count":20,
			"max":[
				248.00003051757812,
				508.6441650390625,
				350.2316589355469
			],
			"min":[
				-248.00003051757812,
				244.24020385742188,
				334.2316589355469
			],
			"type":"VEC3"
		},
		{
			"bufferView":20,
			"componentType":5126,
			"count":20,
			"type":"VEC3"
		},
		{
			"bufferView":21,
			"componentType":5126,
			"count":20,
			"type":"VEC2"
		},
		{
			"bufferView":22,
			"componentType":5123,
			"count":30,
			"type":"SCALAR"
		},
		{
			"bufferView":23,
			"componentType":5126,
			"count":4,
			"max":[
				248.00003051757812,
				-20.16375732421875,
				350.2316589355469
			],
			"min":[
				-248.00003051757812,
				-20.16375732421875,
				334.2316589355469
			],
			"type":"VEC3"
		},
		{
			"bufferView":24,
			"componentType":5126,
			"count":4,
			"type":"VEC3"
		},
		{
			"bufferView":25,
			"componentType":5126,
			"count":4,
			"type":"VEC2"
		},
		{
			"bufferView":26,
			"componentType":5123,
			"count":6,
			"type":"SCALAR"
		},
		{
			"bufferView":27,
			"componentType":5126,
			"count":20,
			"max":[
				248.00003051757812,
				508.64422607421875,
				350.2316589355469
			],
			"min":[
				-248.00003051757812,
				243.64422607421875,
				334.2316589355469
			],
			"type":"VEC3"
		},
		{
			"bufferView":28,
			"componentType":5126,
			"count":20,
			"type":"VEC3"
		},
		{
			"bufferView":29,
			"componentType":5126,
			"count":20,
			"type":"VEC2"
		},
		{
			"bufferView":30,
			"componentType":5126,
			"count":16,
			"max":[
				248.00003051757812,
				243.64422607421875,
				350.2316589355469
			],
			"min":[
				-248.00003051757812,
				-20.16375732421875,
				334.2316589355469
			],
			"type":"VEC3"
		},
		{
			"bufferView":31,
			"componentType":5126,
			"count":16,
			"type":"VEC3"
		},
		{
			"bufferView":32,
			"componentType":5126,
			"count":16,
			"type":"VEC2"
		},
		{
			"bufferView":33,
			"componentType":5123,
			"count":24,
			"type":"SCALAR"
		},
		{
			"bufferView":34,
			"componentType":5126,
			"count":612,
			"max":[
				8,
				250,
				7.878462791442871
			],
			"min":[
				-20.92306900024414,
				0,
				-7.878462314605713
			],
			"type":"VEC3"
		},
		{
			"bufferView":35,
			"componentType":5126,
			"count":612,
			"type":"VEC3"
		},
		{
			"bufferView":36,
			"componentType":5126,
			"count":612,
			"type":"VEC2"
		},
		{
			"bufferView":37,
			"componentType":5123,
			"count":612,
			"type":"SCALAR"
		},
		{
			"bufferView":38,
			"componentType":5126,
			"count":612,
			"max":[
				8,
				250,
				7.878462791442871
			],
			"min":[
				-20.92306900024414,
				0,
				-7.878462314605713
			],
			"type":"VEC3"
		},
		{
			"bufferView":39,
			"componentType":5126,
			"count":612,
			"type":"VEC3"
		},
		{
			"bufferView":40,
			"componentType":5126,
			"count":612,
			"type":"VEC2"
		},
		{
			"bufferView":41,
			"componentType":5126,
			"count":612,
			"max":[
				8,
				250,
				7.878462791442871
			],
			"min":[
				-20.92306900024414,
				0,
				-7.878462314605713
			],
			"type":"VEC3"
		},
		{
			"bufferView":42,
			"componentType":5126,
			"count":612,
			"type":"VEC3"
		},
		{
			"bufferView":43,
			"componentType":5126,
			"count":612,
			"type":"VEC2"
		},
		{
			"bufferView":44,
			"componentType":5126,
			"count":612,
			"max":[
				8,
				250,
				7.878462791442871
			],
			"min":[
				-20.92306900024414,
				0,
				-7.878462314605713
			],
			"type":"VEC3"
		},
		{
			"bufferView":45,
			"componentType":5126,
			"count":612,
			"type":"VEC3"
		},
		{
			"bufferView":46,
			"componentType":5126,
			"count":612,
			"type":"VEC2"
		},
		{
			"bufferView":47,
			"componentType":5126,
			"count":5034,
			"max":[
				20.78639793395996,
				40.2843017578125,
				36.0159912109375
			],
			"min":[
				-106.73749542236328,
				-23.04941749572754,
				-241.34600830078125
			],
			"type":"VEC3"
		},
		{
			"bufferView":48,
			"componentType":5126,
			"count":5034,
			"type":"VEC3"
		},
		{
			"bufferView":49,
			"componentType":5126,
			"count":5034,
			"type":"VEC2"
		},
		{
			"bufferView":50,
			"componentType":5123,
			"count":5034,
			"type":"SCALAR"
		},
		{
			"bufferView":51,
			"componentType":5126,
			"count":6399,
			"max":[
				435.9688415527344,
				0,
				261.9956359863281
			],
			"min":[
				-435.96881103515625,
				-213.95855712890625,
				-261.99566650390625
			],
			"type":"VEC3"
		},
		{
			"bufferView":52,
			"componentType":5126,
			"count":6399,
			"type":"VEC3"
		},
		{
			"bufferView":53,
			"componentType":5126,
			"count":6399,
			"type":"VEC2"
		},
		{
			"bufferView":54,
			"componentType":5123,
			"count":6399,
			"type":"SCALAR"
		}
	],
	"bufferViews":[
		{
			"buffer":0,
			"byteLength":2064,
			"byteOffset":0,
			"target":34962
		},
		{
			"buffer":0,
			"byteLength":2064,
			"byteOffset":2064,
			"target":34962
		},
		{
			"buffer":0,
			"byteLength":1376,
			"byteOffset":4128,
			"target":34962
		},
		{
			"buffer":0,
			"byteLength":516,
			"byteOffset":5504,
			"target":34963
		},
		{
			"buffer":0,
			"byteLength":1488,
			"byteOffset":6020,
			"target":34962
		},
		{
			"buffer":0,
			"byteLength":1488,
			"byteOffset":7508,
			"target":34962
		},
		{
			"buffer":0,
			"byteLength":992,
			"byteOffset":8996,
			"target":34962
		},
		{
			"buffer":0,
			"byteLength":372,
			"byteOffset":9988,
			"target":34963
		},
		{
			"buffer":0,
			"byteLength":288,
			"byteOffset":10360,
			"target":34962
		},
		{
			"buffer":0,
			"byteLength":288,
			"byteOffset":10648,
			"target":34962
		},
		{
			"buffer":0,
			"byteLength":192,
			"byteOffset":10936,
			"target":34962
		},
		{
			"buffer":0,
			"byteLength":72,
			"byteOffset":11128,
			"target":34963
		},
		{
			"buffer":0,
			"byteLength":288,
			"byteOffset":11200,
			"target":34962
		},
		{
			"buffer":0,
			"byteLength":288,
			"byteOffset":11488,
			"target":34962
		},
		{
			"buffer":0,
			"byteLength":192,
			"byteOffset":11776,
			"target":34962
		},
		{
			"buffer":0,
			"byteLength":240,
			"byteOffset":11968,
			"target":34962
		},
		{
			"buffer":0,
			"byteLength":240,
			"byteOffset":12208,
			"target":34962
		},
		{
			"buffer":0,
			"byteLength":160,
			"byteOffset":12448,
			"target":34962
		},
		{
			"buffer":0,
			"byteLength":60,
			"byteOffset":12608,
			"target":34963
		},
		{
			"buffer":0,
			"byteLength":240,
			"byteOffset":12668,
			"target":34962
		},
		{
			"buffer":0,
			"byteLength":240,
			"byteOffset":12908,
			"target":34962
		},
		{
			"buffer":0,
			"byteLength":160,
			"byteOffset":13148,
			"target":34962
		},
		{
			"buffer":0,
			"byteLength":60,
			"byteOffset":13308,
			"target":34963
		},
		{
			"buffer":0,
			"byteLength":48,
			"byteOffset":13368,
			"target":34962
		},
		{
			"buffer":0,
			"byteLength":48,
			"byteOffset":13416,
			"target":34962
		},
		{
			"buffer":0,
			"byteLength":32,
			"byteOffset":13464,
			"target":34962
		},
		{
			"buffer":0,
			"byteLength":12,
			"byteOffset":13496,
			"target":34963
		},
		{
			"buffer":0,
			"byteLength":240,
			"byteOffset":13508,
			"target":34962
		},
		{
			"buffer":0,
			"byteLength":240,
			"byteOffset":13748,
			"target":34962
		},
		{
			"buffer":0,
			"byteLength":160,
			"byteOffset":13988,
			"target":34962
		},
		{
			"buffer":0,
			"byteLength":192,
			"byteOffset":14148,
			"target":34962
		},
		{
			"buffer":0,
			"byteLength":192,
			"byteOffset":14340,
			"target":34962
		},
		{
			"buffer":0,
			"byteLength":128,
			"byteOffset":14532,
			"target":34962
		},
		{
			"buffer":0,
			"byteLength":48,
			"byteOffset":14660,
			"target":34963
		},
		{
			"buffer":0,
			"byteLength":7344,
			"byteOffset":14708,
			"target":34962
		},
		{
			"buffer":0,
			"byteLength":7344,
			"byteOffset":22052,
			"target":34962
		},
		{
			"buffer":0,
			"byteLength":4896,
			"byteOffset":29396,
			"target":34962
		},
		{
			"buffer":0,
			"byteLength":1224,
			"byteOffset":34292,
			"target":34963
		},
		{
			"buffer":0,
			"byteLength":7344,
			"byteOffset":35516,
			"target":34962
		},
		{
			"buffer":0,
			"byteLength":7344,
			"byteOffset":42860,
			"target":34962
		},
		{
			"buffer":0,
			"byteLength":4896,
			"byteOffset":50204,
			"target":34962
		},
		{
			"buffer":0,
			"byteLength":7344,
			"byteOffset":55100,
			"target":34962
		},
		{
			"buffer":0,
			"byteLength":7344,
			"byteOffset":62444,
			"target":34962
		},
		{
			"buffer":0,
			"byteLength":4896,
			"byteOffset":69788,
			"target":34962
		},
		{
			"buffer":0,
			"byteLength":7344,
			"byteOffset":74684,
			"target":34962
		},
		{
			"buffer":0,
			"byteLength":7344,
			"byteOffset":82028,
			"target":34962
		},
		{
			"buffer":0,
			"byteLength":4896,
			"byteOffset":89372,
			"target":34962
		},
		{
			"buffer":0,
			"byteLength":60408,
			"byteOffset":94268,
			"target":34962
		},
		{
			"buffer":0,
			"byteLength":60408,
			"byteOffset":154676,
			"target":34962
		},
		{
			"buffer":0,
			"byteLength":40272,
			"byteOffset":215084,
			"target":34962
		},
		{
			"buffer":0,
			"byteLength":10068,
			"byteOffset":255356,
			"target":34963
		},
		{
			"buffer":0,
			"byteLength":76788,
			"byteOffset":265424,
			"target":34962
		},
		{
			"buffer":0,
			"byteLength":76788,
			"byteOffset":342212,
			"target":34962
		},
		{
			"buffer":0,
			"byteLength":51192,
			"byteOffset":419000,
			"target":34962
		},
		{
			"buffer":0,
			"byteLength":12798,
			"byteOffset":470192,
			"target":34963
		}
	],
	"buffers":[
		{
			"byteLength":482992,
			"uri":"data:application/octet-stream;base64,"
		}
	]
}
