{
	"asset":{
		"generator":"Khronos glTF Blender I/O v3.6.27",
		"version":"2.0"
	},
	"scene":0,
	"scenes":[
		{
			"name":"Scene",
			"nodes":[
				0,
				1
			]
		}
	],
	"nodes":[
		{
			"mesh":0,
			"name":"Cube",
			"scale":[
				0.2529045343399048,
				0.2529045343399048,
				0.2529045343399048
			]
		},
		{
			"name":"\u041e\u0431'\u0454\u043a\u0442",
			"rotation":[
				0.7071068286895752,
				0,
				0,
				0.7071068286895752
			]
		}
	],
	"meshes":[
		{
			"name":"Cube",
			"primitives":[
				{
					"attributes":{
						"POSITION":0,
						"NORMAL":1,
						"TEXCOORD_0":2,
						"TEXCOORD_1":3
					},
					"indices":4
				}
			]
		}
	],
	"accessors":[
		{
			"bufferView":0,
			"componentType":5126,
			"count":24399,
			"max":[
				2.5942704677581787,
				2.0955100059509277,
				5.525264263153076
			],
			"min":[
				-2.547199010848999,
				-1.393012523651123,
				-5.358222961425781
			],
			"type":"VEC3"
		},
		{
			"bufferView":1,
			"componentType":5126,
			"count":24399,
			"type":"VEC3"
		},
		{
			"bufferView":2,
			"componentType":5126,
			"count":24399,
			"type":"VEC2"
		},
		{
			"bufferView":3,
			"componentType":5126,
			"count":24399,
			"type":"VEC2"
		},
		{
			"bufferView":4,
			"componentType":5123,
			"count":41865,
			"type":"SCALAR"
		}
	],
	"bufferViews":[
		{
			"buffer":0,
			"byteLength":292788,
			"byteOffset":0,
			"target":34962
		},
		{
			"buffer":0,
			"byteLength":292788,
			"byteOffset":292788,
			"target":34962
		},
		{
			"buffer":0,
			"byteLength":195192,
			"byteOffset":585576,
			"target":34962
		},
		{
			"buffer":0,
			"byteLength":195192,
			"byteOffset":780768,
			"target":34962
		},
		{
			"buffer":0,
			"byteLength":83730,
			"byteOffset":975960,
			"target":34963
		}
	],
	"buffers":[
		{
			"byteLength":1059692,
			"uri":"data:application/octet-stream;base64,"
		}
	]
}
