{
	"asset":{
		"generator":"Khronos glTF Blender I/O v3.6.27",
		"version":"2.0"
	},
	"scene":0,
	"scenes":[
		{
			"name":"Scene",
			"nodes":[
				4
			]
		}
	],
	"nodes":[
		{
			"mesh":0,
			"name":"coveredCar__0"
		},
		{
			"children":[
				0
			],
			"name":"coveredCar",
			"rotation":[
				-0.70710688829422,
				0,
				0,
				0.7071066498756409
			],
			"scale":[
				100,
				99.99999237060547,
				99.99999237060547
			]
		},
		{
			"children":[
				1
			],
			"name":"RootNode"
		},
		{
			"children":[
				2
			],
			"name":"562c77ca826046b896300ed8389db5ab.fbx",
			"rotation":[
				0.70710688829422,
				0,
				0,
				0.7071066498756409
			],
			"scale":[
				0.009999999776482582,
				0.010000000707805157,
				0.010000000707805157
			]
		},
		{
			"children":[
				3
			],
			"name":"Sketchfab_model",
			"rotation":[
				-0.70710688829422,
				0,
				0,
				0.7071066498756409
			]
		}
	],
	"meshes":[
		{
			"name":"coveredCar__0",
			"primitives":[
				{
					"attributes":{
						"POSITION":0,
						"NORMAL":1,
						"TEXCOORD_0":2
					},
					"indices":3
				}
			]
		}
	],
	"accessors":[
		{
			"bufferView":0,
			"componentType":5126,
			"count":2680,
			"max":[
				1.8212430477142334,
				3.0976366996765137,
				1.727457880973816
			],
			"min":[
				-1.7817120552062988,
				-2.882991075515747,
				0.03504139930009842
			],
			"type":"VEC3"
		},
		{
			"bufferView":1,
			"componentType":5126,
			"count":2680,
			"type":"VEC3"
		},
		{
			"bufferView":2,
			"componentType":5126,
			"count":2680,
			"type":"VEC2"
		},
		{
			"bufferView":3,
			"componentType":5123,
			"count":14871,
			"type":"SCALAR"
		}
	],
	"bufferViews":[
		{
			"buffer":0,
			"byteLength":32160,
			"byteOffset":0,
			"target":34962
		},
		{
			"buffer":0,
			"byteLength":32160,
			"byteOffset":32160,
			"target":34962
		},
		{
			"buffer":0,
			"byteLength":21440,
			"byteOffset":64320,
			"target":34962
		},
		{
			"buffer":0,
			"byteLength":29742,
			"byteOffset":85760,
			"target":34963
		}
	],
	"buffers":[
		{
			"byteLength":115504,
			"uri":"data:application/octet-stream;base64,"
		}
	]
}
